<?xml version="1.0" standalone="no"?><!DOCTYPE svg PUBLIC "-//W3C//DTD SVG 1.1//EN" "http://www.w3.org/Graphics/SVG/1.1/DTD/svg11.dtd"><svg t="1729769595918" class="icon" viewBox="0 0 1396 1024" version="1.1" xmlns="http://www.w3.org/2000/svg" p-id="6390" xmlns:xlink="http://www.w3.org/1999/xlink" width="272.65625" height="200"><path d="M1222.004364 0H174.359273C78.227394 0 0 78.351515 0 174.685091V849.299394C0 945.648485 78.227394 1024 174.359273 1024h1047.629575C1318.136242 1024 1396.363636 945.648485 1396.363636 849.314909V174.700606C1396.363636 78.351515 1318.136242 0 1222.004364 0zM174.359273 49.477818h1047.629575c24.60703 0 47.491879 7.230061 66.839273 19.595637L790.04703 540.982303c-50.672485 47.926303-133.073455 47.926303-183.714909 0L107.535515 69.073455a123.717818 123.717818 0 0 1 66.823758-19.595637zM1346.963394 849.299394c0 69.026909-56.040727 125.207273-124.974546 125.207273H174.359273c-68.902788 0-124.974545-56.164848-124.974546-125.207273V174.700606c0-26.530909 8.316121-51.091394 22.403879-71.369697l500.642909 473.63103c34.645333 32.814545 80.197818 49.229576 125.734788 49.229576 45.53697 0 91.10497-16.41503 125.750303-49.229576L1324.544 103.330909a124.586667 124.586667 0 0 1 22.403879 71.354182V849.299394h0.015515z" fill="#ffffff" p-id="6391"></path></svg>